<svg width="241" height="66" viewBox="0 0 241 66" fill="none" xmlns="http://www.w3.org/2000/svg">
<g clip-path="url(#clip0_5027_1351)">
<path d="M218.265 51.8817C217.244 52.9648 215.923 53.7157 214.473 54.0371C213.023 54.3585 211.51 54.2358 210.129 53.6847C208.749 53.1337 207.566 52.1796 206.732 50.9461C205.898 49.7126 205.452 48.2564 205.452 46.7658C205.452 45.2753 205.898 43.819 206.732 42.5855C207.566 41.352 208.749 40.398 210.129 39.8469C211.51 39.2959 213.023 39.1731 214.473 39.4945C215.923 39.816 217.244 40.5668 218.265 41.6499L221.13 38.6798C219.529 37.0351 217.476 35.9065 215.232 35.4382C212.989 34.97 210.658 35.1832 208.536 36.0507C206.414 36.9182 204.597 38.4007 203.319 40.3088C202.04 42.2169 201.357 44.4641 201.357 46.7634C201.357 49.0628 202.04 51.31 203.319 53.2181C204.597 55.1262 206.414 56.6087 208.536 57.4762C210.658 58.3437 212.989 58.5569 215.232 58.0887C217.476 57.6204 219.529 56.4918 221.13 54.8471L218.265 51.8817Z" fill="white"/>
<path d="M92.3232 30.4241V8.05144H104.714V11.9026H96.6896V17.2838H104.393V21.1349H96.6896V26.5729H104.714V30.4241H92.3232Z" fill="white"/>
<path d="M173.893 30.4266V11.9288H168.257V8.05396H183.933V11.9335H178.269V30.4266H173.893Z" fill="white"/>
<path d="M192.991 30.4266V20.9527L185.282 8.05396H190.371L195.176 16.4621L199.982 8.05396H205.047L197.352 20.9479V30.4219L192.991 30.4266Z" fill="white"/>
<path d="M90.0127 57.9494L98.9814 35.572H103.032L112 57.9494H107.289L105.401 52.8477H96.6212L94.7048 57.9494H90.0127ZM98.094 48.9966H103.881L100.988 41.5122L98.094 48.9966Z" fill="white"/>
<path d="M114.949 57.9494V35.572H119.311V54.0983H127.369V57.9494H114.949Z" fill="white"/>
<path d="M131.069 57.9494V35.572H135.436V54.0983H143.489V57.9494H131.069Z" fill="white"/>
<path d="M147.194 57.9494V35.572H151.561V57.9494H147.194Z" fill="white"/>
<path d="M154.535 57.9494L163.461 35.572H167.516L176.485 57.9494H171.765L169.876 52.8477H161.144L159.213 57.9494H154.535ZM162.616 48.9966H168.399L165.51 41.5122L162.616 48.9966Z" fill="white"/>
<path d="M179.467 57.9494V35.572H183.243L192.953 49.6929V35.572H197.329V57.9494H193.524L183.833 43.8427V57.9494H179.467Z" fill="white"/>
<path d="M224.825 57.9494V35.572H237.216V39.4895H229.192V44.7996H236.895V48.7171H229.201V54.0272H237.226V57.9494H224.825Z" fill="white"/>
<path d="M131.528 19.2371C131.528 16.7141 130.706 14.2604 129.186 12.2502C127.667 10.24 125.534 8.78366 123.113 8.10335C120.692 7.42305 118.115 7.5561 115.777 8.4822C113.438 9.4083 111.465 11.0766 110.159 13.2327C108.853 15.3888 108.286 17.9143 108.544 20.424C108.802 22.9338 109.871 25.29 111.588 27.1333C113.304 28.9766 115.575 30.2059 118.053 30.6336C120.531 31.0613 123.08 30.6639 125.312 29.5021L126.034 30.4495H131.226L128.564 27.001C130.48 24.8729 131.536 22.1049 131.528 19.2371ZM120.001 26.6789C118.533 26.6789 117.098 26.2421 115.878 25.4236C114.658 24.6052 113.707 23.4419 113.145 22.081C112.584 20.72 112.437 19.2225 112.724 17.7779C113.01 16.3333 113.718 15.0065 114.756 13.9653C115.794 12.924 117.117 12.2152 118.556 11.9284C119.996 11.6416 121.488 11.7898 122.844 12.3541C124.2 12.9184 125.359 13.8736 126.173 15.0988C126.988 16.324 127.423 17.7642 127.422 19.2371C127.422 20.8244 126.912 22.3695 125.968 23.6425L125.269 22.7378H120.077L122.734 26.1484C121.866 26.4993 120.938 26.6794 120.001 26.6789Z" fill="white"/>
<path d="M144.916 30.8482C139.927 30.8482 136.443 26.9591 136.443 21.3743V8.05396H140.833V21.398C140.833 24.5575 142.363 26.4428 144.916 26.4428C147.47 26.4428 149.004 24.548 149.004 21.398V8.05396H153.394V21.398C153.394 26.9591 149.906 30.8482 144.916 30.8482Z" fill="white"/>
<path d="M163.963 8.04893H159.573V30.4263H163.963V8.04893Z" fill="white"/>
<path d="M5.00195 35.5695L8.96708 41.4244H35.0425L31.0774 35.5695H5.00195Z" fill="white"/>
<path d="M19.9023 57.5706L23.8722 63.4207H49.9477L45.9825 57.5706H19.9023Z" fill="white"/>
<path d="M42.4966 52.4262L38.5315 46.5713H12.4561L16.4212 52.4262H42.4966Z" fill="white"/>
<path d="M48.8372 13.5737L44.8721 19.4286L52.335 30.4231H60.2558L48.8372 13.5737Z" fill="white"/>
<path d="M52.3262 8.43217L67.2332 30.4259H75.1682L56.296 2.58203L52.3262 8.43217Z" fill="white"/>
<path d="M37.4229 30.4255H45.3531L41.388 24.5753L37.4229 30.4255Z" fill="white"/>
<path d="M45.9825 8.43217L49.9477 2.58203H23.8722L19.9023 8.43217H45.9825Z" fill="white"/>
<path d="M16.4212 13.5784L12.4561 19.4332H38.5315L42.4966 13.5784H16.4212Z" fill="white"/>
<path d="M8.96708 24.5753L5.00195 30.4255H31.0774L35.0425 24.5753H8.96708Z" fill="white"/>
<path d="M48.8372 52.4237L44.8721 46.5688L52.335 35.5696H60.2558L48.8372 52.4237Z" fill="white"/>
<path d="M52.3262 57.568L67.2332 35.5696H75.1682L56.296 63.4181L52.3262 57.568Z" fill="white"/>
<path d="M37.4199 35.5696H45.3502L41.3851 41.4245L37.4199 35.5696Z" fill="white"/>
</g>
<defs>
<clipPath id="clip0_5027_1351">
<rect width="240.216" height="66" fill="white" transform="translate(0.134766 0.000244141)"/>
</clipPath>
</defs>
</svg>
